<svg id="Ebene_1" data-name="Ebene 1" xmlns="http://www.w3.org/2000/svg" viewBox="0 0 56.693 56.693" fit="" height="100%" width="100%" preserveAspectRatio="xMidYMid meet" focusable="false"><defs><style>.cls-1{;}</style></defs><path class="cls-1" d="M43.722,0a12.912,12.912,0,0,0,0,25.823A13,13,0,0,0,56.693,12.852,12.977,12.977,0,0,0,43.722,0Zm2.649,21.159H43.216V9.266a10.886,10.886,0,0,1-4.077,2.392V8.794a9.154,9.154,0,0,0,2.685-1.533A5.833,5.833,0,0,0,43.81,4.627h2.561Z"></path><path class="cls-1" d="M46.206,29.155a16.483,16.483,0,0,1-2.425.2,16.352,16.352,0,0,1-7.522-1.833,3.866,3.866,0,0,1-.419,0L12.8,25.01a3.1,3.1,0,1,1,.594-6.157l15.85,1.728A16.32,16.32,0,0,1,27.6,15.758L12.8,14.144a3.1,3.1,0,1,1,.594-6.157L27.687,9.546A16.415,16.415,0,0,1,33.033.488,63.814,63.814,0,0,0,25.052,0h-.871C12.5,0,3.026,2.944,3.026,6.576V50.117c0,1.075.83,2.09,2.3,2.986l-2.3,3.589,6.184-.005,1.015-1.629a54.769,54.769,0,0,0,13.956,1.634h.871a54.769,54.769,0,0,0,13.956-1.634l1.015,1.629,6.184.005L43.9,53.1c1.472-.9,2.3-1.911,2.3-2.986V47.5h7.461v-4.8H46.206ZM35.84,49.06,12.8,46.548a3.1,3.1,0,1,1,.594-6.157L36.433,42.9A3.1,3.1,0,1,1,35.84,49.06Zm0-10.8L12.8,35.747a3.1,3.1,0,1,1,.594-6.157L36.433,32.1A3.1,3.1,0,1,1,35.84,38.259Z"></path></svg>