<svg version="1.1" xmlns="http://www.w3.org/2000/svg" xmlns:xlink="http://www.w3.org/1999/xlink" x="0px" y="0px" viewBox="-10 0 56.7 56.7" style="enable-background:new 0 0 56.7 56.7;" xml:space="preserve" fit="" height="100%" width="100%" preserveAspectRatio="xMidYMid meet" focusable="false">
<g id="Ebene_1">
	<g>
		<path class="boilder1-st3" d="M35.9,22.7V7.1h-5.5l0,12.9H26v-3.4c0-0.6-0.5-1.1-1.1-1.1H1.1C0.5,15.5,0,16,0,16.6v31.8
			c0,0.6,0.5,1.1,1.1,1.1h23.8c0.6,0,1.1-0.5,1.1-1.1v-23l7.1,0C34.7,25.5,35.9,24.2,35.9,22.7z M23.8,47.3H2.2V17.7h21.5V47.3z"></path>
		<path class="boilder1-st3" d="M6.1,42H20c1.4,0,2.6-1.2,2.6-2.6V25.6c0-1.4-1.2-2.6-2.6-2.6H6.1c-1.4,0-2.6,1.2-2.6,2.6v13.9
			C3.5,40.9,4.6,42,6.1,42z M4.7,25.6c0-0.7,0.6-1.3,1.3-1.3H20c0.7,0,1.3,0.6,1.3,1.3v13.9c0,0.7-0.6,1.3-1.3,1.3h-3.8
			c0.6-0.3,1.1-0.8,1.1-0.8s2-1.6,2-4.1c0-2.5-2-5.5-2-5.5s0.2,2.2-0.4,3.8c-0.7,1.9-1.5,2.4-1.5,2.4s-1.2,1.1-1.3,2.5
			c0,0.7,0.1,1.2,0.2,1.6h-1.2c-0.2-0.4-0.4-0.9-0.4-1.7c0-1.8,1.9-3.7,2.7-5c0.8-1.2,0.8-3.6,0.3-4.9c-0.5-1.2-2-2.5-2-2.5
			s0.3,0.7,0,1.8c-0.3,1.1-2.4,1.9-3.8,4c-1.4,2.1-1,4.5-1,4.5s0.2,1.8,1.5,2.8c0.5,0.4,1.1,0.7,1.7,1H10c-0.6-0.6-2.6-2.5-2.7-4.7
			c-0.1-1.4,0.3-2.6,0.9-3.5c0.7-1,2-2.3,2-2.3s-2.3,0.4-3.6,3.1c-1.2,2.7,0.7,5.1,0.7,5.1s0.5,0.6,1.1,1.2c0.5,0.4,1.1,0.8,1.5,1
			H6.1c-0.7,0-1.3-0.6-1.3-1.3V25.6z"></path>
	</g>
</g>
</svg>