<svg id="Ebene_1" data-name="Ebene 1" xmlns="http://www.w3.org/2000/svg" viewBox="0 0 56.693 56.693" fit="" height="100%" width="100%" preserveAspectRatio="xMidYMid meet" focusable="false"><defs><style>.cls-1{;}</style></defs><path class="cls-1" d="M4.988,36.711c-1.525,0-3.51,5.148-4.725,8.505C-1.047,48.835,2.378,49.4,4.988,49.4s6.2-.472,4.725-4.185C8.49,42.147,6.28,36.711,4.988,36.711Z"></path><path class="cls-1" d="M43.748,17.939A12.912,12.912,0,1,0,56.719,30.791,12.952,12.952,0,0,0,43.748,17.939ZM46.4,39.1H43.242V27.2A10.886,10.886,0,0,1,39.165,29.6V26.733A9.154,9.154,0,0,0,41.849,25.2a5.833,5.833,0,0,0,1.987-2.634H46.4Z"></path><path class="cls-1" d="M36.583,15.947H31.719V12.271h8.195c2.15,0,3.894-1.115,3.894-2.49s-1.743-2.49-3.894-2.49H18.544c-2.15,0-3.894,1.115-3.894,2.49s1.743,2.49,3.894,2.49h8.195v3.676H10.062A9.734,9.734,0,0,0,.327,25.681v8.466H9.75V32.178a5.841,5.841,0,0,1,5.841-5.841H27.88A16.575,16.575,0,0,1,36.583,15.947Z"></path></svg>