<svg version="1.1" xmlns="http://www.w3.org/2000/svg" xmlns:xlink="http://www.w3.org/1999/xlink" x="0px" y="0px" viewBox="0 0 56.7 56.7" style="enable-background:new 0 0 56.7 56.7;" xml:space="preserve" fit="" height="100%" width="100%" preserveAspectRatio="xMidYMid meet" focusable="false">
<style type="text/css">
	.st0{display:none;}
	.st1{display:inline;fill-rule:evenodd;clip-rule:evenodd;fill:none;}
	.st2{display:inline;}
	.st3{;}
	.st4{fill:#F8B133;}
	.st5{fill:#F0F078;}
	.st6{display:inline;fill:#F8B133;}
	.st7{display:inline;fill:#F0F078;}
	.st8{display:inline;;}
	.st9{fill-rule:evenodd;clip-rule:evenodd;;}
	.st10{fill:#FFFFFF;}
	.st11{fill:#C8C8C8;}
	.st12{fill:#E30613;}
	.st13{fill:#F8D200;}
	.st14{fill:#E63329;}
	.st15{fill:#0055A4;}
	.st16{fill:#19247D;}
	.st17{fill:#CF142B;}
	.st18{fill:#E4E2E0;}
	.st19{fill:#32D232;}
	.st20{fill-rule:evenodd;clip-rule:evenodd;fill:#FFFFFF;}
</style>
<g id="Entwurfsebene" class="st0">
</g>
<g id="Ebene_1">
	<g>
		<path class="st3" d="M25.1,2.9c0.1,1,0.2,2.1,0.1,3.2c-0.5,10-9,17.7-19,17.1C4,23.1,1.9,22.6,0,21.8L7.1,5.1L25.1,2.9z"></path>
		<path class="st3" d="M4.2,46.1l46.1-28.8c4.1-2.5,9,4.6,4.9,7.2L9.1,53.3C5,55.8,0.1,48.6,4.2,46.1z"></path>
		<rect x="19.6" y="21" transform="matrix(0.788 -0.6157 0.6157 0.788 -10.8096 19.2101)" class="st3" width="5.9" height="8.5"></rect>

			<rect x="0.3" y="27.4" transform="matrix(0.1219 -0.9925 0.9925 0.1219 -26.0665 31.1419)" class="st3" width="8.5" height="5.9"></rect>
		<rect x="28.6" y="4.8" transform="matrix(0.1218 -0.9925 0.9925 0.1218 18.6679 39.3078)" class="st3" width="5.9" height="8.5"></rect>
	</g>
</g>
</svg>