<svg version="1.1" xmlns="http://www.w3.org/2000/svg" xmlns:xlink="http://www.w3.org/1999/xlink" x="0px" y="0px" viewBox="0 0 56.7 56.7" style="enable-background:new 0 0 56.7 56.7;" xml:space="preserve" fit="" height="100%" width="100%" preserveAspectRatio="xMidYMid meet" focusable="false">
<style type="text/css">
	.st0{display:none;}
	.st1{display:inline;fill-rule:evenodd;clip-rule:evenodd;fill:none;}
	.st2{display:inline;}
	.st3{;}
	.st4{fill:#F8B133;}
	.st5{fill:#F0F078;}
	.st6{display:inline;fill:#F8B133;}
	.st7{display:inline;fill:#F0F078;}
	.st8{display:inline;;}
	.st9{fill-rule:evenodd;clip-rule:evenodd;;}
	.st10{fill:#FFFFFF;}
	.st11{fill:#F0F028;}
	.st12{fill:#C8C8C8;}
	.st13{fill:#E30613;}
	.st14{fill:#F8D200;}
	.st15{fill:#E63329;}
	.st16{fill:#0055A4;}
	.st17{fill:#19247D;}
	.st18{fill:#CF142B;}
	.st19{fill:#E4E2E0;}
	.st20{fill:#32D232;}
	.st21{fill-rule:evenodd;clip-rule:evenodd;fill:#FFFFFF;}
	.st22{fill:none;stroke:#FFFFFF;stroke-width:3;stroke-linecap:round;stroke-linejoin:round;stroke-miterlimit:10;}
	.st23{clip-path:url(#SVGID_6_);}
</style>
<g id="Entwurfsebene" class="st0">
</g>
<g id="Ebene_1">
	<path class="st3" d="M34.2,56.7H22.5L9.7,40.1c-0.8-1.4-1.3-3.1-1.3-4.7V9.5c0-5.2,4.3-9.5,9.5-9.5h20.9c5.2,0,9.5,4.3,9.5,9.5
		v25.9c0,1.7-0.4,3.3-1.3,4.7l-0.1,0.1L34.2,56.7z M23.6,54.5h9.5l12-15.5c0.6-1.1,0.9-2.3,0.9-3.6V9.5c0-4-3.3-7.3-7.3-7.3H17.9
		c-4,0-7.3,3.3-7.3,7.3v25.9c0,1.2,0.3,2.5,0.9,3.6L23.6,54.5z"></path>
	<g>
		<defs>
			<path id="SVGID_5_" d="M40.9,19.2c-2.2,0.1-2.4-0.4-4.2-1.5c-1.2-0.7-5.5-2-8-0.8c-5.2,2.6-4.3,1.4-8.6,0.3
				c-4.7-1.3-4.4,0.4-7.7-0.3c0,0,0,0-0.1,0v18c0,1.3,0.4,2.6,1,3.8l10.9,14h8.2l10.8-13.9l0.1-0.1c0.7-1.2,1-2.5,1-3.8V17.9
				C43.9,17.8,42.3,19.1,40.9,19.2z"></path>
		</defs>
		<clipPath id="SVGID_2_">
			<use xlink:href="#SVGID_5_" style="overflow:visible;"></use>
		</clipPath>
		<g style="clip-path:url(#SVGID_2_);">
			<circle class="st3" cx="7.2" cy="12.2" r="0.6"></circle>
			<circle class="st3" cx="7.2" cy="14.7" r="0.6"></circle>
			<circle class="st3" cx="7.2" cy="17.3" r="0.6"></circle>
			<circle class="st3" cx="7.2" cy="19.9" r="0.6"></circle>
			<circle class="st3" cx="7.2" cy="22.5" r="0.6"></circle>
			<circle class="st3" cx="7.2" cy="25.1" r="0.6"></circle>
			<circle class="st3" cx="7.2" cy="27.6" r="0.6"></circle>
			<circle class="st3" cx="7.2" cy="30.2" r="0.6"></circle>
			<circle class="st3" cx="7.2" cy="32.8" r="0.6"></circle>
			<circle class="st3" cx="7.2" cy="35.4" r="0.6"></circle>
			<circle class="st3" cx="7.2" cy="37.9" r="0.6"></circle>
			<circle class="st3" cx="7.2" cy="40.5" r="0.6"></circle>
			<circle class="st3" cx="7.2" cy="43.1" r="0.6"></circle>
			<circle class="st3" cx="7.2" cy="45.7" r="0.6"></circle>
			<circle class="st3" cx="7.2" cy="48.2" r="0.6"></circle>
			<circle class="st3" cx="7.2" cy="50.8" r="0.6"></circle>
			<circle class="st3" cx="9.4" cy="12.2" r="0.6"></circle>
			<circle class="st3" cx="9.4" cy="14.7" r="0.6"></circle>
			<circle class="st3" cx="9.4" cy="17.3" r="0.6"></circle>
			<circle class="st3" cx="9.4" cy="19.9" r="0.6"></circle>
			<circle class="st3" cx="9.4" cy="22.5" r="0.6"></circle>
			<circle class="st3" cx="9.4" cy="25.1" r="0.6"></circle>
			<circle class="st3" cx="9.4" cy="27.6" r="0.6"></circle>
			<circle class="st3" cx="9.4" cy="30.2" r="0.6"></circle>
			<circle class="st3" cx="9.4" cy="32.8" r="0.6"></circle>
			<circle class="st3" cx="9.4" cy="35.4" r="0.6"></circle>
			<circle class="st3" cx="9.4" cy="37.9" r="0.6"></circle>
			<circle class="st3" cx="9.4" cy="40.5" r="0.6"></circle>
			<circle class="st3" cx="9.4" cy="43.1" r="0.6"></circle>
			<circle class="st3" cx="9.4" cy="45.7" r="0.6"></circle>
			<circle class="st3" cx="9.4" cy="48.2" r="0.6"></circle>
			<circle class="st3" cx="9.4" cy="50.8" r="0.6"></circle>
			<circle class="st3" cx="11.5" cy="12.2" r="0.6"></circle>
			<circle class="st3" cx="11.5" cy="14.7" r="0.6"></circle>
			<circle class="st3" cx="11.5" cy="17.3" r="0.6"></circle>
			<circle class="st3" cx="11.5" cy="19.9" r="0.6"></circle>
			<circle class="st3" cx="11.5" cy="22.5" r="0.6"></circle>
			<circle class="st3" cx="11.5" cy="25.1" r="0.6"></circle>
			<circle class="st3" cx="11.5" cy="27.6" r="0.6"></circle>
			<circle class="st3" cx="11.5" cy="30.2" r="0.6"></circle>
			<circle class="st3" cx="11.5" cy="32.8" r="0.6"></circle>
			<circle class="st3" cx="11.5" cy="35.4" r="0.6"></circle>
			<circle class="st3" cx="11.5" cy="37.9" r="0.6"></circle>
			<circle class="st3" cx="11.5" cy="40.5" r="0.6"></circle>
			<circle class="st3" cx="11.5" cy="43.1" r="0.6"></circle>
			<circle class="st3" cx="11.5" cy="45.7" r="0.6"></circle>
			<circle class="st3" cx="11.5" cy="48.2" r="0.6"></circle>
			<circle class="st3" cx="11.5" cy="50.8" r="0.6"></circle>
			<circle class="st3" cx="13.7" cy="12.2" r="0.6"></circle>
			<circle class="st3" cx="13.7" cy="14.7" r="0.6"></circle>
			<circle class="st3" cx="13.7" cy="17.3" r="0.6"></circle>
			<circle class="st3" cx="13.7" cy="19.9" r="0.6"></circle>
			<circle class="st3" cx="13.7" cy="22.5" r="0.6"></circle>
			<circle class="st3" cx="13.7" cy="25.1" r="0.6"></circle>
			<circle class="st3" cx="13.7" cy="27.6" r="0.6"></circle>
			<circle class="st3" cx="13.7" cy="30.2" r="0.6"></circle>
			<circle class="st3" cx="13.7" cy="32.8" r="0.6"></circle>
			<circle class="st3" cx="13.7" cy="35.4" r="0.6"></circle>
			<circle class="st3" cx="13.7" cy="37.9" r="0.6"></circle>
			<circle class="st3" cx="13.7" cy="40.5" r="0.6"></circle>
			<circle class="st3" cx="13.7" cy="43.1" r="0.6"></circle>
			<circle class="st3" cx="13.7" cy="45.7" r="0.6"></circle>
			<circle class="st3" cx="13.7" cy="48.2" r="0.6"></circle>
			<circle class="st3" cx="13.7" cy="50.8" r="0.6"></circle>
			<circle class="st3" cx="15.8" cy="12.2" r="0.6"></circle>
			<circle class="st3" cx="15.8" cy="14.7" r="0.6"></circle>
			<circle class="st3" cx="15.8" cy="17.3" r="0.6"></circle>
			<circle class="st3" cx="15.8" cy="19.9" r="0.6"></circle>
			<circle class="st3" cx="15.8" cy="22.5" r="0.6"></circle>
			<circle class="st3" cx="15.8" cy="25.1" r="0.6"></circle>
			<circle class="st3" cx="15.8" cy="27.6" r="0.6"></circle>
			<circle class="st3" cx="15.8" cy="30.2" r="0.6"></circle>
			<circle class="st3" cx="15.8" cy="32.8" r="0.6"></circle>
			<circle class="st3" cx="15.8" cy="35.4" r="0.6"></circle>
			<circle class="st3" cx="15.8" cy="37.9" r="0.6"></circle>
			<circle class="st3" cx="15.8" cy="40.5" r="0.6"></circle>
			<circle class="st3" cx="15.8" cy="43.1" r="0.6"></circle>
			<circle class="st3" cx="15.8" cy="45.7" r="0.6"></circle>
			<circle class="st3" cx="15.8" cy="48.2" r="0.6"></circle>
			<circle class="st3" cx="15.8" cy="50.8" r="0.6"></circle>
			<circle class="st3" cx="18" cy="12.2" r="0.6"></circle>
			<circle class="st3" cx="18" cy="14.7" r="0.6"></circle>
			<circle class="st3" cx="18" cy="17.3" r="0.6"></circle>
			<circle class="st3" cx="18" cy="19.9" r="0.6"></circle>
			<circle class="st3" cx="18" cy="22.5" r="0.6"></circle>
			<circle class="st3" cx="18" cy="25.1" r="0.6"></circle>
			<circle class="st3" cx="18" cy="27.6" r="0.6"></circle>
			<circle class="st3" cx="18" cy="30.2" r="0.6"></circle>
			<circle class="st3" cx="18" cy="32.8" r="0.6"></circle>
			<circle class="st3" cx="18" cy="35.4" r="0.6"></circle>
			<circle class="st3" cx="18" cy="37.9" r="0.6"></circle>
			<circle class="st3" cx="18" cy="40.5" r="0.6"></circle>
			<circle class="st3" cx="18" cy="43.1" r="0.6"></circle>
			<circle class="st3" cx="18" cy="45.7" r="0.6"></circle>
			<circle class="st3" cx="18" cy="48.2" r="0.6"></circle>
			<circle class="st3" cx="18" cy="50.8" r="0.6"></circle>
			<circle class="st3" cx="20.1" cy="12.2" r="0.6"></circle>
			<circle class="st3" cx="20.1" cy="14.7" r="0.6"></circle>
			<circle class="st3" cx="20.1" cy="17.3" r="0.6"></circle>
			<circle class="st3" cx="20.1" cy="19.9" r="0.6"></circle>
			<circle class="st3" cx="20.1" cy="22.5" r="0.6"></circle>
			<circle class="st3" cx="20.1" cy="25.1" r="0.6"></circle>
			<circle class="st3" cx="20.1" cy="27.6" r="0.6"></circle>
			<circle class="st3" cx="20.1" cy="30.2" r="0.6"></circle>
			<circle class="st3" cx="20.1" cy="32.8" r="0.6"></circle>
			<circle class="st3" cx="20.1" cy="35.4" r="0.6"></circle>
			<circle class="st3" cx="20.1" cy="37.9" r="0.6"></circle>
			<circle class="st3" cx="20.1" cy="40.5" r="0.6"></circle>
			<circle class="st3" cx="20.1" cy="43.1" r="0.6"></circle>
			<circle class="st3" cx="20.1" cy="45.7" r="0.6"></circle>
			<circle class="st3" cx="20.1" cy="48.2" r="0.6"></circle>
			<circle class="st3" cx="20.1" cy="50.8" r="0.6"></circle>
			<circle class="st3" cx="22.3" cy="12.2" r="0.6"></circle>
			<circle class="st3" cx="22.3" cy="14.7" r="0.6"></circle>
			<circle class="st3" cx="22.3" cy="17.3" r="0.6"></circle>
			<circle class="st3" cx="22.3" cy="19.9" r="0.6"></circle>
			<circle class="st3" cx="22.3" cy="22.5" r="0.6"></circle>
			<circle class="st3" cx="22.3" cy="25.1" r="0.6"></circle>
			<circle class="st3" cx="22.3" cy="27.6" r="0.6"></circle>
			<circle class="st3" cx="22.3" cy="30.2" r="0.6"></circle>
			<circle class="st3" cx="22.3" cy="32.8" r="0.6"></circle>
			<circle class="st3" cx="22.3" cy="35.4" r="0.6"></circle>
			<circle class="st3" cx="22.3" cy="37.9" r="0.6"></circle>
			<circle class="st3" cx="22.3" cy="40.5" r="0.6"></circle>
			<circle class="st3" cx="22.3" cy="43.1" r="0.6"></circle>
			<circle class="st3" cx="22.3" cy="45.7" r="0.6"></circle>
			<circle class="st3" cx="22.3" cy="48.2" r="0.6"></circle>
			<circle class="st3" cx="22.3" cy="50.8" r="0.6"></circle>
			<circle class="st3" cx="24.4" cy="12.2" r="0.6"></circle>
			<circle class="st3" cx="24.4" cy="14.7" r="0.6"></circle>
			<circle class="st3" cx="24.4" cy="17.3" r="0.6"></circle>
			<circle class="st3" cx="24.4" cy="19.9" r="0.6"></circle>
			<circle class="st3" cx="24.4" cy="22.5" r="0.6"></circle>
			<circle class="st3" cx="24.4" cy="25.1" r="0.6"></circle>
			<circle class="st3" cx="24.4" cy="27.6" r="0.6"></circle>
			<circle class="st3" cx="24.4" cy="30.2" r="0.6"></circle>
			<circle class="st3" cx="24.4" cy="32.8" r="0.6"></circle>
			<circle class="st3" cx="24.4" cy="35.4" r="0.6"></circle>
			<circle class="st3" cx="24.4" cy="37.9" r="0.6"></circle>
			<circle class="st3" cx="24.4" cy="40.5" r="0.6"></circle>
			<circle class="st3" cx="24.4" cy="43.1" r="0.6"></circle>
			<circle class="st3" cx="24.4" cy="45.7" r="0.6"></circle>
			<circle class="st3" cx="24.4" cy="48.2" r="0.6"></circle>
			<circle class="st3" cx="24.4" cy="50.8" r="0.6"></circle>
			<circle class="st3" cx="26.5" cy="12.2" r="0.6"></circle>
			<circle class="st3" cx="26.5" cy="14.7" r="0.6"></circle>
			<circle class="st3" cx="26.5" cy="17.3" r="0.6"></circle>
			<circle class="st3" cx="26.5" cy="19.9" r="0.6"></circle>
			<circle class="st3" cx="26.5" cy="22.5" r="0.6"></circle>
			<circle class="st3" cx="26.5" cy="25.1" r="0.6"></circle>
			<circle class="st3" cx="26.5" cy="27.6" r="0.6"></circle>
			<circle class="st3" cx="26.5" cy="30.2" r="0.6"></circle>
			<circle class="st3" cx="26.5" cy="32.8" r="0.6"></circle>
			<circle class="st3" cx="26.5" cy="35.4" r="0.6"></circle>
			<circle class="st3" cx="26.5" cy="37.9" r="0.6"></circle>
			<circle class="st3" cx="26.5" cy="40.5" r="0.6"></circle>
			<circle class="st3" cx="26.5" cy="43.1" r="0.6"></circle>
			<circle class="st3" cx="26.5" cy="45.7" r="0.6"></circle>
			<circle class="st3" cx="26.5" cy="48.2" r="0.6"></circle>
			<circle class="st3" cx="26.5" cy="50.8" r="0.6"></circle>
			<circle class="st3" cx="28.7" cy="12.2" r="0.6"></circle>
			<circle class="st3" cx="28.7" cy="14.7" r="0.6"></circle>
			<circle class="st3" cx="28.7" cy="17.3" r="0.6"></circle>
			<circle class="st3" cx="28.7" cy="19.9" r="0.6"></circle>
			<circle class="st3" cx="28.7" cy="22.5" r="0.6"></circle>
			<circle class="st3" cx="28.7" cy="25.1" r="0.6"></circle>
			<circle class="st3" cx="28.7" cy="27.6" r="0.6"></circle>
			<circle class="st3" cx="28.7" cy="30.2" r="0.6"></circle>
			<circle class="st3" cx="28.7" cy="32.8" r="0.6"></circle>
			<circle class="st3" cx="28.7" cy="35.4" r="0.6"></circle>
			<circle class="st3" cx="28.7" cy="37.9" r="0.6"></circle>
			<circle class="st3" cx="28.7" cy="40.5" r="0.6"></circle>
			<circle class="st3" cx="28.7" cy="43.1" r="0.6"></circle>
			<circle class="st3" cx="28.7" cy="45.7" r="0.6"></circle>
			<circle class="st3" cx="28.7" cy="48.2" r="0.6"></circle>
			<circle class="st3" cx="28.7" cy="50.8" r="0.6"></circle>
			<circle class="st3" cx="30.8" cy="12.2" r="0.6"></circle>
			<circle class="st3" cx="30.8" cy="14.7" r="0.6"></circle>
			<circle class="st3" cx="30.8" cy="17.3" r="0.6"></circle>
			<circle class="st3" cx="30.8" cy="19.9" r="0.6"></circle>
			<circle class="st3" cx="30.8" cy="22.5" r="0.6"></circle>
			<circle class="st3" cx="30.8" cy="25.1" r="0.6"></circle>
			<circle class="st3" cx="30.8" cy="27.6" r="0.6"></circle>
			<circle class="st3" cx="30.8" cy="30.2" r="0.6"></circle>
			<circle class="st3" cx="30.8" cy="32.8" r="0.6"></circle>
			<circle class="st3" cx="30.8" cy="35.4" r="0.6"></circle>
			<circle class="st3" cx="30.8" cy="37.9" r="0.6"></circle>
			<circle class="st3" cx="30.8" cy="40.5" r="0.6"></circle>
			<circle class="st3" cx="30.8" cy="43.1" r="0.6"></circle>
			<circle class="st3" cx="30.8" cy="45.7" r="0.6"></circle>
			<circle class="st3" cx="30.8" cy="48.2" r="0.6"></circle>
			<circle class="st3" cx="30.8" cy="50.8" r="0.6"></circle>
			<circle class="st3" cx="33" cy="12.2" r="0.6"></circle>
			<circle class="st3" cx="33" cy="14.7" r="0.6"></circle>
			<circle class="st3" cx="33" cy="17.3" r="0.6"></circle>
			<circle class="st3" cx="33" cy="19.9" r="0.6"></circle>
			<circle class="st3" cx="33" cy="22.5" r="0.6"></circle>
			<circle class="st3" cx="33" cy="25.1" r="0.6"></circle>
			<circle class="st3" cx="33" cy="27.6" r="0.6"></circle>
			<circle class="st3" cx="33" cy="30.2" r="0.6"></circle>
			<circle class="st3" cx="33" cy="32.8" r="0.6"></circle>
			<circle class="st3" cx="33" cy="35.4" r="0.6"></circle>
			<circle class="st3" cx="33" cy="37.9" r="0.6"></circle>
			<circle class="st3" cx="33" cy="40.5" r="0.6"></circle>
			<circle class="st3" cx="33" cy="43.1" r="0.6"></circle>
			<circle class="st3" cx="33" cy="45.7" r="0.6"></circle>
			<circle class="st3" cx="33" cy="48.2" r="0.6"></circle>
			<circle class="st3" cx="33" cy="50.8" r="0.6"></circle>
			<circle class="st3" cx="35.1" cy="12.2" r="0.6"></circle>
			<circle class="st3" cx="35.1" cy="14.7" r="0.6"></circle>
			<circle class="st3" cx="35.1" cy="17.3" r="0.6"></circle>
			<circle class="st3" cx="35.1" cy="19.9" r="0.6"></circle>
			<circle class="st3" cx="35.1" cy="22.5" r="0.6"></circle>
			<circle class="st3" cx="35.1" cy="25.1" r="0.6"></circle>
			<circle class="st3" cx="35.1" cy="27.6" r="0.6"></circle>
			<circle class="st3" cx="35.1" cy="30.2" r="0.6"></circle>
			<circle class="st3" cx="35.1" cy="32.8" r="0.6"></circle>
			<circle class="st3" cx="35.1" cy="35.4" r="0.6"></circle>
			<circle class="st3" cx="35.1" cy="37.9" r="0.6"></circle>
			<circle class="st3" cx="35.1" cy="40.5" r="0.6"></circle>
			<circle class="st3" cx="35.1" cy="43.1" r="0.6"></circle>
			<circle class="st3" cx="35.1" cy="45.7" r="0.6"></circle>
			<circle class="st3" cx="35.1" cy="48.2" r="0.6"></circle>
			<circle class="st3" cx="35.1" cy="50.8" r="0.6"></circle>
			<circle class="st3" cx="37.3" cy="12.2" r="0.6"></circle>
			<circle class="st3" cx="37.3" cy="14.7" r="0.6"></circle>
			<circle class="st3" cx="37.3" cy="17.3" r="0.6"></circle>
			<circle class="st3" cx="37.3" cy="19.9" r="0.6"></circle>
			<circle class="st3" cx="37.3" cy="22.5" r="0.6"></circle>
			<circle class="st3" cx="37.3" cy="25.1" r="0.6"></circle>
			<circle class="st3" cx="37.3" cy="27.6" r="0.6"></circle>
			<circle class="st3" cx="37.3" cy="30.2" r="0.6"></circle>
			<circle class="st3" cx="37.3" cy="32.8" r="0.6"></circle>
			<circle class="st3" cx="37.3" cy="35.4" r="0.6"></circle>
			<circle class="st3" cx="37.3" cy="37.9" r="0.6"></circle>
			<circle class="st3" cx="37.3" cy="40.5" r="0.6"></circle>
			<circle class="st3" cx="37.3" cy="43.1" r="0.6"></circle>
			<circle class="st3" cx="37.3" cy="45.7" r="0.6"></circle>
			<circle class="st3" cx="37.3" cy="48.2" r="0.6"></circle>
			<circle class="st3" cx="37.3" cy="50.8" r="0.6"></circle>
			<circle class="st3" cx="39.4" cy="12.2" r="0.6"></circle>
			<circle class="st3" cx="39.4" cy="14.7" r="0.6"></circle>
			<circle class="st3" cx="39.4" cy="17.3" r="0.6"></circle>
			<circle class="st3" cx="39.4" cy="19.9" r="0.6"></circle>
			<circle class="st3" cx="39.4" cy="22.5" r="0.6"></circle>
			<circle class="st3" cx="39.4" cy="25.1" r="0.6"></circle>
			<circle class="st3" cx="39.4" cy="27.6" r="0.6"></circle>
			<circle class="st3" cx="39.4" cy="30.2" r="0.6"></circle>
			<circle class="st3" cx="39.4" cy="32.8" r="0.6"></circle>
			<circle class="st3" cx="39.4" cy="35.4" r="0.6"></circle>
			<circle class="st3" cx="39.4" cy="37.9" r="0.6"></circle>
			<circle class="st3" cx="39.4" cy="40.5" r="0.6"></circle>
			<circle class="st3" cx="39.4" cy="43.1" r="0.6"></circle>
			<circle class="st3" cx="39.4" cy="45.7" r="0.6"></circle>
			<circle class="st3" cx="39.4" cy="48.2" r="0.6"></circle>
			<circle class="st3" cx="39.4" cy="50.8" r="0.6"></circle>
			<circle class="st3" cx="41.5" cy="12.2" r="0.6"></circle>
			<circle class="st3" cx="41.5" cy="14.7" r="0.6"></circle>
			<circle class="st3" cx="41.5" cy="17.3" r="0.6"></circle>
			<circle class="st3" cx="41.5" cy="19.9" r="0.6"></circle>
			<circle class="st3" cx="41.5" cy="22.5" r="0.6"></circle>
			<circle class="st3" cx="41.5" cy="25.1" r="0.6"></circle>
			<circle class="st3" cx="41.5" cy="27.6" r="0.6"></circle>
			<circle class="st3" cx="41.5" cy="30.2" r="0.6"></circle>
			<circle class="st3" cx="41.5" cy="32.8" r="0.6"></circle>
			<circle class="st3" cx="41.5" cy="35.4" r="0.6"></circle>
			<circle class="st3" cx="41.5" cy="37.9" r="0.6"></circle>
			<circle class="st3" cx="41.5" cy="40.5" r="0.6"></circle>
			<circle class="st3" cx="41.5" cy="43.1" r="0.6"></circle>
			<circle class="st3" cx="41.5" cy="45.7" r="0.6"></circle>
			<circle class="st3" cx="41.5" cy="48.2" r="0.6"></circle>
			<circle class="st3" cx="41.5" cy="50.8" r="0.6"></circle>
			<circle class="st3" cx="43.7" cy="12.2" r="0.6"></circle>
			<circle class="st3" cx="43.7" cy="14.7" r="0.6"></circle>
			<circle class="st3" cx="43.7" cy="17.3" r="0.6"></circle>
			<circle class="st3" cx="43.7" cy="19.9" r="0.6"></circle>
			<circle class="st3" cx="43.7" cy="22.5" r="0.6"></circle>
			<circle class="st3" cx="43.7" cy="25.1" r="0.6"></circle>
			<circle class="st3" cx="43.7" cy="27.6" r="0.6"></circle>
			<circle class="st3" cx="43.7" cy="30.2" r="0.6"></circle>
			<circle class="st3" cx="43.7" cy="32.8" r="0.6"></circle>
			<circle class="st3" cx="43.7" cy="35.4" r="0.6"></circle>
			<circle class="st3" cx="43.7" cy="37.9" r="0.6"></circle>
			<circle class="st3" cx="43.7" cy="40.5" r="0.6"></circle>
			<circle class="st3" cx="43.7" cy="43.1" r="0.6"></circle>
			<circle class="st3" cx="43.7" cy="45.7" r="0.6"></circle>
			<circle class="st3" cx="43.7" cy="48.2" r="0.6"></circle>
			<circle class="st3" cx="43.7" cy="50.8" r="0.6"></circle>
			<circle class="st3" cx="45.8" cy="12.2" r="0.6"></circle>
			<circle class="st3" cx="45.8" cy="14.7" r="0.6"></circle>
			<circle class="st3" cx="45.8" cy="17.3" r="0.6"></circle>
			<circle class="st3" cx="45.8" cy="19.9" r="0.6"></circle>
			<circle class="st3" cx="45.8" cy="22.5" r="0.6"></circle>
			<circle class="st3" cx="45.8" cy="25.1" r="0.6"></circle>
			<circle class="st3" cx="45.8" cy="27.6" r="0.6"></circle>
			<circle class="st3" cx="45.8" cy="30.2" r="0.6"></circle>
			<circle class="st3" cx="45.8" cy="32.8" r="0.6"></circle>
			<circle class="st3" cx="45.8" cy="35.4" r="0.6"></circle>
			<circle class="st3" cx="45.8" cy="37.9" r="0.6"></circle>
			<circle class="st3" cx="45.8" cy="40.5" r="0.6"></circle>
			<circle class="st3" cx="45.8" cy="43.1" r="0.6"></circle>
			<circle class="st3" cx="45.8" cy="45.7" r="0.6"></circle>
			<circle class="st3" cx="45.8" cy="48.2" r="0.6"></circle>
			<circle class="st3" cx="45.8" cy="50.8" r="0.6"></circle>
			<circle class="st3" cx="48" cy="12.2" r="0.6"></circle>
			<circle class="st3" cx="48" cy="14.7" r="0.6"></circle>
			<circle class="st3" cx="48" cy="17.3" r="0.6"></circle>
			<circle class="st3" cx="48" cy="19.9" r="0.6"></circle>
			<circle class="st3" cx="48" cy="22.5" r="0.6"></circle>
			<circle class="st3" cx="48" cy="25.1" r="0.6"></circle>
			<circle class="st3" cx="48" cy="27.6" r="0.6"></circle>
			<circle class="st3" cx="48" cy="30.2" r="0.6"></circle>
			<circle class="st3" cx="48" cy="32.8" r="0.6"></circle>
			<circle class="st3" cx="48" cy="35.4" r="0.6"></circle>
			<circle class="st3" cx="48" cy="37.9" r="0.6"></circle>
			<circle class="st3" cx="48" cy="40.5" r="0.6"></circle>
			<circle class="st3" cx="48" cy="43.1" r="0.6"></circle>
			<circle class="st3" cx="48" cy="45.7" r="0.6"></circle>
			<circle class="st3" cx="48" cy="48.2" r="0.6"></circle>
			<circle class="st3" cx="48" cy="50.8" r="0.6"></circle>
			<circle class="st3" cx="50.1" cy="12.2" r="0.6"></circle>
			<circle class="st3" cx="50.1" cy="14.7" r="0.6"></circle>
			<circle class="st3" cx="50.1" cy="17.3" r="0.6"></circle>
			<circle class="st3" cx="50.1" cy="19.9" r="0.6"></circle>
			<circle class="st3" cx="50.1" cy="22.5" r="0.6"></circle>
			<circle class="st3" cx="50.1" cy="25.1" r="0.6"></circle>
			<circle class="st3" cx="50.1" cy="27.6" r="0.6"></circle>
			<circle class="st3" cx="7.2" cy="1.9" r="0.6"></circle>
			<circle class="st3" cx="7.2" cy="4.4" r="0.6"></circle>
			<circle class="st3" cx="7.2" cy="7" r="0.6"></circle>
			<circle class="st3" cx="7.2" cy="9.6" r="0.6"></circle>
			<circle class="st3" cx="9.4" cy="1.9" r="0.6"></circle>
			<circle class="st3" cx="9.4" cy="4.4" r="0.6"></circle>
			<circle class="st3" cx="9.4" cy="7" r="0.6"></circle>
			<circle class="st3" cx="9.4" cy="9.6" r="0.6"></circle>
			<circle class="st3" cx="11.5" cy="1.9" r="0.6"></circle>
			<circle class="st3" cx="11.5" cy="4.4" r="0.6"></circle>
			<circle class="st3" cx="11.5" cy="7" r="0.6"></circle>
			<circle class="st3" cx="11.5" cy="9.6" r="0.6"></circle>
			<circle class="st3" cx="13.7" cy="1.9" r="0.6"></circle>
			<circle class="st3" cx="13.7" cy="4.4" r="0.6"></circle>
			<circle class="st3" cx="13.7" cy="7" r="0.6"></circle>
			<circle class="st3" cx="13.7" cy="9.6" r="0.6"></circle>
			<circle class="st3" cx="15.8" cy="1.9" r="0.6"></circle>
			<circle class="st3" cx="15.8" cy="4.4" r="0.6"></circle>
			<circle class="st3" cx="15.8" cy="7" r="0.6"></circle>
			<circle class="st3" cx="15.8" cy="9.6" r="0.6"></circle>
			<circle class="st3" cx="18" cy="1.9" r="0.6"></circle>
			<circle class="st3" cx="18" cy="4.4" r="0.6"></circle>
			<circle class="st3" cx="18" cy="7" r="0.6"></circle>
			<circle class="st3" cx="18" cy="9.6" r="0.6"></circle>
			<circle class="st3" cx="20.1" cy="1.9" r="0.6"></circle>
			<circle class="st3" cx="20.1" cy="4.4" r="0.6"></circle>
			<circle class="st3" cx="20.1" cy="7" r="0.6"></circle>
			<circle class="st3" cx="20.1" cy="9.6" r="0.6"></circle>
			<circle class="st3" cx="22.3" cy="1.9" r="0.6"></circle>
			<circle class="st3" cx="22.3" cy="4.4" r="0.6"></circle>
			<circle class="st3" cx="22.3" cy="7" r="0.6"></circle>
			<circle class="st3" cx="22.3" cy="9.6" r="0.6"></circle>
			<circle class="st3" cx="24.4" cy="1.9" r="0.6"></circle>
			<circle class="st3" cx="24.4" cy="4.4" r="0.6"></circle>
			<circle class="st3" cx="24.4" cy="7" r="0.6"></circle>
			<circle class="st3" cx="24.4" cy="9.6" r="0.6"></circle>
			<circle class="st3" cx="26.5" cy="1.9" r="0.6"></circle>
			<circle class="st3" cx="26.5" cy="4.4" r="0.6"></circle>
			<circle class="st3" cx="26.5" cy="7" r="0.6"></circle>
			<circle class="st3" cx="26.5" cy="9.6" r="0.6"></circle>
			<circle class="st3" cx="28.7" cy="1.9" r="0.6"></circle>
			<circle class="st3" cx="28.7" cy="4.4" r="0.6"></circle>
			<circle class="st3" cx="28.7" cy="7" r="0.6"></circle>
			<circle class="st3" cx="28.7" cy="9.6" r="0.6"></circle>
			<circle class="st3" cx="30.8" cy="1.9" r="0.6"></circle>
			<circle class="st3" cx="30.8" cy="4.4" r="0.6"></circle>
			<circle class="st3" cx="30.8" cy="7" r="0.6"></circle>
			<circle class="st3" cx="30.8" cy="9.6" r="0.6"></circle>
			<circle class="st3" cx="33" cy="1.9" r="0.6"></circle>
			<circle class="st3" cx="33" cy="4.4" r="0.6"></circle>
			<circle class="st3" cx="33" cy="7" r="0.6"></circle>
			<circle class="st3" cx="33" cy="9.6" r="0.6"></circle>
			<circle class="st3" cx="35.1" cy="1.9" r="0.6"></circle>
			<circle class="st3" cx="35.1" cy="4.4" r="0.6"></circle>
			<circle class="st3" cx="35.1" cy="7" r="0.6"></circle>
			<circle class="st3" cx="35.1" cy="9.6" r="0.6"></circle>
			<circle class="st3" cx="37.3" cy="1.9" r="0.6"></circle>
			<circle class="st3" cx="37.3" cy="4.4" r="0.6"></circle>
			<circle class="st3" cx="37.3" cy="7" r="0.6"></circle>
			<circle class="st3" cx="37.3" cy="9.6" r="0.6"></circle>
			<circle class="st3" cx="39.4" cy="1.9" r="0.6"></circle>
			<circle class="st3" cx="39.4" cy="4.4" r="0.6"></circle>
			<circle class="st3" cx="39.4" cy="7" r="0.6"></circle>
			<circle class="st3" cx="39.4" cy="9.6" r="0.6"></circle>
			<circle class="st3" cx="41.5" cy="1.9" r="0.6"></circle>
			<circle class="st3" cx="41.5" cy="4.4" r="0.6"></circle>
			<circle class="st3" cx="41.5" cy="7" r="0.6"></circle>
			<circle class="st3" cx="41.5" cy="9.6" r="0.6"></circle>
			<circle class="st3" cx="43.7" cy="1.9" r="0.6"></circle>
			<circle class="st3" cx="43.7" cy="4.4" r="0.6"></circle>
			<circle class="st3" cx="43.7" cy="7" r="0.6"></circle>
			<circle class="st3" cx="43.7" cy="9.6" r="0.6"></circle>
			<circle class="st3" cx="45.8" cy="1.9" r="0.6"></circle>
			<circle class="st3" cx="45.8" cy="4.4" r="0.6"></circle>
			<circle class="st3" cx="45.8" cy="7" r="0.6"></circle>
			<circle class="st3" cx="45.8" cy="9.6" r="0.6"></circle>
			<circle class="st3" cx="48" cy="1.9" r="0.6"></circle>
			<circle class="st3" cx="48" cy="4.4" r="0.6"></circle>
			<circle class="st3" cx="48" cy="7" r="0.6"></circle>
			<circle class="st3" cx="48" cy="9.6" r="0.6"></circle>
			<circle class="st3" cx="50.1" cy="1.9" r="0.6"></circle>
			<circle class="st3" cx="50.1" cy="4.4" r="0.6"></circle>
			<circle class="st3" cx="50.1" cy="7" r="0.6"></circle>
			<circle class="st3" cx="50.1" cy="9.6" r="0.6"></circle>
			<circle class="st3" cx="50.1" cy="30.2" r="0.6"></circle>
			<circle class="st3" cx="50.1" cy="32.8" r="0.6"></circle>
			<circle class="st3" cx="50.1" cy="35.4" r="0.6"></circle>
			<circle class="st3" cx="50.1" cy="37.9" r="0.6"></circle>
			<circle class="st3" cx="50.1" cy="40.5" r="0.6"></circle>
			<circle class="st3" cx="50.1" cy="43.1" r="0.6"></circle>
			<circle class="st3" cx="50.1" cy="45.7" r="0.6"></circle>
			<circle class="st3" cx="50.1" cy="48.2" r="0.6"></circle>
			<circle class="st3" cx="50.1" cy="50.8" r="0.6"></circle>
			<circle class="st3" cx="7.2" cy="53.4" r="0.6"></circle>
			<circle class="st3" cx="7.2" cy="56" r="0.6"></circle>
			<circle class="st3" cx="9.4" cy="53.4" r="0.6"></circle>
			<circle class="st3" cx="9.4" cy="56" r="0.6"></circle>
			<circle class="st3" cx="11.5" cy="53.4" r="0.6"></circle>
			<circle class="st3" cx="11.5" cy="56" r="0.6"></circle>
			<circle class="st3" cx="13.7" cy="53.4" r="0.6"></circle>
			<circle class="st3" cx="13.7" cy="56" r="0.6"></circle>
			<circle class="st3" cx="15.8" cy="53.4" r="0.6"></circle>
			<circle class="st3" cx="15.8" cy="56" r="0.6"></circle>
			<circle class="st3" cx="18" cy="53.4" r="0.6"></circle>
			<circle class="st3" cx="18" cy="56" r="0.6"></circle>
			<circle class="st3" cx="20.1" cy="53.4" r="0.6"></circle>
			<circle class="st3" cx="20.1" cy="56" r="0.6"></circle>
			<circle class="st3" cx="22.3" cy="53.4" r="0.6"></circle>
			<circle class="st3" cx="22.3" cy="56" r="0.6"></circle>
			<circle class="st3" cx="24.4" cy="53.4" r="0.6"></circle>
			<circle class="st3" cx="24.4" cy="56" r="0.6"></circle>
			<circle class="st3" cx="26.5" cy="53.4" r="0.6"></circle>
			<circle class="st3" cx="26.5" cy="56" r="0.6"></circle>
			<circle class="st3" cx="28.7" cy="53.4" r="0.6"></circle>
			<circle class="st3" cx="28.7" cy="56" r="0.6"></circle>
			<circle class="st3" cx="30.8" cy="53.4" r="0.6"></circle>
			<circle class="st3" cx="30.8" cy="56" r="0.6"></circle>
			<circle class="st3" cx="33" cy="53.4" r="0.6"></circle>
			<circle class="st3" cx="33" cy="56" r="0.6"></circle>
			<circle class="st3" cx="35.1" cy="53.4" r="0.6"></circle>
			<circle class="st3" cx="35.1" cy="56" r="0.6"></circle>
			<circle class="st3" cx="37.3" cy="53.4" r="0.6"></circle>
			<circle class="st3" cx="37.3" cy="56" r="0.6"></circle>
			<circle class="st3" cx="39.4" cy="53.4" r="0.6"></circle>
			<circle class="st3" cx="39.4" cy="56" r="0.6"></circle>
			<circle class="st3" cx="41.5" cy="53.4" r="0.6"></circle>
			<circle class="st3" cx="41.5" cy="56" r="0.6"></circle>
			<circle class="st3" cx="43.7" cy="53.4" r="0.6"></circle>
			<circle class="st3" cx="43.7" cy="56" r="0.6"></circle>
			<circle class="st3" cx="45.8" cy="53.4" r="0.6"></circle>
			<circle class="st3" cx="45.8" cy="56" r="0.6"></circle>
			<circle class="st3" cx="48" cy="53.4" r="0.6"></circle>
			<circle class="st3" cx="48" cy="56" r="0.6"></circle>
			<circle class="st3" cx="50.1" cy="53.4" r="0.6"></circle>
			<circle class="st3" cx="50.1" cy="56" r="0.6"></circle>
		</g>
	</g>
</g>
</svg>